<?xml version="1.0" encoding="UTF-8" standalone="no"?>
<!-- Created with Inkscape (http://www.inkscape.org/) -->

<svg
   width="266"
   height="20"
   viewBox="0 0 70.379165 5.2916665"
   version="1.1"
   id="svg1092"
   sodipodi:docname="underline.svg"
   inkscape:version="1.1.2 (76b9e6a115, 2022-02-25)"
   xmlns:inkscape="http://www.inkscape.org/namespaces/inkscape"
   xmlns:sodipodi="http://sodipodi.sourceforge.net/DTD/sodipodi-0.dtd"
   xmlns="http://www.w3.org/2000/svg"
   xmlns:svg="http://www.w3.org/2000/svg">
  <sodipodi:namedview
     id="namedview894"
     pagecolor="#ffffff"
     bordercolor="#666666"
     borderopacity="1.0"
     inkscape:pageshadow="2"
     inkscape:pageopacity="0.0"
     inkscape:pagecheckerboard="0"
     showgrid="false"
     inkscape:zoom="3.9473684"
     inkscape:cx="133"
     inkscape:cy="9.8800001"
     inkscape:window-width="1600"
     inkscape:window-height="797"
     inkscape:window-x="0"
     inkscape:window-y="34"
     inkscape:window-maximized="1"
     inkscape:current-layer="layer1" />
  <defs
     id="defs1089" />
  <g
     id="layer1">
    <path
       style="opacity:0.919226;fill:#bbf7d0;stroke-width:0.579967;fill-opacity:1"
       id="path900"
       d="m 0.20583729,2.9013442 c 2.18726921,0.1201 2.17806121,0.12899 4.92532521,0.21356 4.2429697,0.13062 7.2839765,0.20687 11.6436745,0.14679 6.614988,-0.0912 11.121062,-0.3332 17.786913,-0.6166 7.694936,-0.35623 15.386847,-0.79158 23.069722,-1.35262 3.05029,-0.2227401 6.09803,-0.44765992 9.12672,-0.87561997 0.0782,-0.0526 0.15634,-0.10519 0.23451,-0.15779 0.56491,0.71431991 2.22297,1.40109997 1.69474,2.14294997 -0.60257,0.84626 -2.07473,-0.11381 -3.11292,-0.15123 -2.49947,-0.0901 -7.99709,-0.20851 -10.261588,-0.22174 -2.217852,-0.013 -4.435748,0.0164 -6.65362,0.0246 -2.184985,0.0466 -4.370308,0.0795 -6.554957,0.13984 -4.078274,0.11263 -6.517706,0.21728 -10.490501,0.44845 -2.994668,0.17425 -5.985762,0.40914 -8.977771,0.62286 -2.331119,0.17222 -4.665792,0.27982 -6.999933,0.39721 -0.985697,0.6912999 -2.562997,1.82283 -2.801829,-2.26397 -0.05111,-0.87450997 1.747944,0.12643 2.623545,0.1526099 1.65022,0.0493 3.301733,0.0391 4.952325,0.0739 7.920985,0.1670601 7.161665,0.1838701 15.673787,0.5456601 8.302308,0.4456 16.605814,0.86721 24.908092,1.31309 0,0 1.67812,1.23622 1.67812,1.23622 v 0 C 54.301106,4.0663341 45.927411,3.4558141 37.53309,3.2294541 c -6.702922,-0.0987 -8.527619,-0.22472 -14.878344,0.0182 -1.49216,0.0571 -2.98069,0.18631 -4.470765,0.28364 -0.735639,0.0481 -1.514842,0.4079999 -2.206357,0.1525 C 7.4436865,0.53070413 11.134381,1.173114 12.520244,1.406264 c 2.45826,0.0336 4.916901,-0.0477 7.373933,-0.11287 8.969036,-0.26069 17.939927,-0.40757992 26.910879,-0.58261987 11.808196,-0.32125 1.308184,-0.0599 11.915886,-0.26256 1.41413,-0.027 2.82819,-0.0589 4.24203,-0.0985 0.92878,-0.026 1.89475,-0.36191 2.7857,-0.0983 1.58892,0.47023 3.00189,1.41263977 4.43961,2.23649997 0.158,0.0905 -0.36419,-0.004 -0.54628,-0.006 -11.26565,0.0619 -22.526569,0.54111 -33.776713,1.09975 -3.025124,0.17346 -6.050777,0.3379098 -9.075375,0.5203699 -2.713201,0.16367 -5.423485,0.3764301 -8.13793,0.5179901 -5.091517,0.26554 -10.1940145,0.24706 -15.2819095,0.57965 0,0 -3.16423721,-2.2989501 -3.16423721,-2.2989501 z" />
  </g>
</svg>
